<svg version="1.0" xmlns="http://www.w3.org/2000/svg" width="45" height="45" viewBox="0 0 64 64"><path d="M16.5 6.3c-3.8 2.2-4 2.5-4 7.2 0 5.9-2.6 10.5-5.9 10.5C3.1 24 2 26 2 32c0 6.2 1.1 8 5 8 3.2 0 5.5 4.6 5.5 11 0 4.1.3 4.6 4 6.7 4.9 2.8 8.1 2.9 9.7.3 1.8-2.9 9.8-2.9 11.6 0 1.6 2.6 4.8 2.5 9.7-.3 3.7-2.1 4-2.6 4-6.7 0-6.4 2.3-11 5.5-11 3.9 0 5-1.8 5-8 0-6.3-1.1-8-5.2-8-1.6 0-2.8-.6-2.8-1.3 0-.6-.9-2.3-1.9-3.6-1.5-1.9-1.6-2.9-.8-5.1 1.4-3.7.5-5.6-4.2-8-5.1-2.5-7.7-2.5-9.3 0-1 1.5-2.4 2-5.8 2s-4.8-.5-5.8-2c-1.6-2.6-4.7-2.5-9.7.3zM24 10c.9 1.7 2.1 2 7.9 2 5.9 0 7.1-.3 8.3-2.1 1.3-2.1 1.5-2.1 4.6-.5 3.4 1.8 3.5 2 2.2 5.1-1.5 3.7 4.8 13.5 8.7 13.5 2 0 2.3.5 2.3 4s-.3 4-2.3 4c-3.9 0-10.2 9.8-8.7 13.5 1.3 3.1 1.2 3.3-2.2 5.1-3.1 1.6-3.3 1.6-4.6-.5C39 52.3 37.8 52 32 52c-5.8 0-7 .3-8.2 2.1-1.3 2.1-1.5 2.1-4.6.5-3.4-1.8-3.5-2-2.2-5.1C18.5 45.8 12.2 36 8.3 36c-2 0-2.3-.5-2.3-4s.3-4 2.3-4c3.9 0 10.2-9.8 8.7-13.5-1.3-3.1-1.2-3.3 1.8-4.9 3.6-2 3.9-2 5.2.4z" fill="#fff"/><path d="M27.5 20.9c-4.5 2-7 6-7 11.2 0 4.2.5 5.3 3.3 8.1 4.7 4.8 11.7 4.8 16.4 0 2.8-2.8 3.3-3.9 3.3-8.2 0-4.2-.5-5.4-3.1-8.1-3.3-3.3-9.2-4.6-12.9-3zm10 5.6C42.5 31.4 39 40 32 40c-4.1 0-8-3.9-8-8s3.9-8 8-8c1.9 0 4 .9 5.5 2.5z" fill="#fff"/></svg>