<svg width="45" height="45" viewBox="0 -.5 25 25" fill="none" xmlns="http://www.w3.org/2000/svg">
    <path
        d="M9.35 19a.75.75 0 001.5 0h-1.5zm.75-2.23l-.75-.03v.03h.75zm2.4-2.23l-.026.749h.052l-.026-.75zm2.4 2.23h.75v-.03l-.75.03zM14.15 19a.75.75 0 001.5 0h-1.5zm-4.05-.75a.75.75 0 000 1.5v-1.5zm4.8 1.5a.75.75 0 000-1.5v1.5zm-4.8 0a.75.75 0 000-1.5v1.5zM9.5 19v-.75h-.026L9.5 19zm-3.6-3.346h-.75v.028l.75-.028zm.75-6.706a.75.75 0 00-1.5 0h1.5zM3.079 9.957a.75.75 0 10.842 1.24l-.842-1.24zm3.242-.388a.75.75 0 10-.842-1.241l.842 1.24zM5.48 8.327A.75.75 0 106.32 9.57L5.48 8.327zm5.637-2.919l-.407-.63a.667.667 0 00-.014.01l.421.62zm2.768 0l.421-.62a.667.667 0 00-.014-.01l-.407.63zm4.795 4.16a.75.75 0 00.842-1.24l-.842 1.24zM14.9 18.25a.75.75 0 000 1.5v-1.5zm.6.75l.026-.75H15.5V19zm3.6-3.346l.75.028v-.028h-.75zm.75-6.706a.75.75 0 00-1.5 0h1.5zm1.229 2.249a.75.75 0 10.842-1.242l-.842 1.242zm-1.558-2.87a.75.75 0 10-.842 1.242l.842-1.242zM10.85 19v-2.23h-1.5V19h1.5zm0-2.202a1.57 1.57 0 011.624-1.51l.052-1.498a3.07 3.07 0 00-3.175 2.95l1.498.058zm1.676-1.51a1.57 1.57 0 011.624 1.51l1.5-.058a3.07 3.07 0 00-3.176-2.95l.052 1.499zm1.624 1.481V19h1.5v-2.23h-1.5zM10.1 19.75h4.8v-1.5h-4.8v1.5zm0-1.5h-.6v1.5h.6v-1.5zm-.626 0a2.73 2.73 0 01-2.825-2.624l-1.498.056a4.23 4.23 0 004.375 4.068l-.052-1.5zM6.65 15.654V8.948h-1.5v6.706h1.5zm-2.729-4.456l2.4-1.63-.842-1.24-2.4 1.629.842 1.24zm2.4-1.63l5.216-3.54-.842-1.24-5.216 3.54.842 1.24zm5.202-3.53a1.801 1.801 0 011.954 0l.814-1.26a3.301 3.301 0 00-3.582 0l.814 1.26zm1.94-.01l5.216 3.54.842-1.24-5.216-3.54-.842 1.24zM14.9 19.75h.6v-1.5h-.6v1.5zm.574 0a4.23 4.23 0 004.375-4.068l-1.498-.056a2.73 2.73 0 01-2.825 2.624l-.052 1.5zm4.376-4.096V8.948h-1.5v6.706h1.5zm2.071-5.699l-2.4-1.628-.842 1.242 2.4 1.628.842-1.242z"
        fill="#fff" />
</svg>